M48
;DRILL file {PCBNEW (2007-11-29-a)} date 21/9/2009-00:36:19
;FORMAT={2:4 / absolute / Zoll / Dezimalformat}
R,T
VER,1
FMAT,2
INCH,TZ
TCST,OFF
ICI,OFF
ATC,ON
T1C0.025
T2C0.032
T3C0.040
T4C0.120
%
M47
G05
M72
T1
X2.650Y1.780
X2.830Y1.990
X3.410Y2.470
X3.260Y2.320
X3.360Y2.220
X3.560Y2.220
X3.660Y2.420
X3.210Y2.150
X2.920Y1.990
X3.050Y1.610
X2.980Y1.810
X2.650Y1.990
X2.870Y1.810
X2.900Y1.610
X3.260Y2.520
X3.020Y2.520
X2.920Y2.270
X3.170Y2.270
X3.880Y3.070
X3.860Y2.930
X2.770Y2.670
X2.680Y1.610
X4.080Y2.990
X4.160Y2.820
X3.960Y1.950
X4.170Y3.350
X4.060Y2.350
X3.810Y2.150
X3.760Y1.950
X3.930Y2.720
X4.010Y2.640
X3.860Y1.950
X4.170Y4.170
X4.170Y4.450
X4.050Y1.910
X4.170Y4.730
X4.120Y2.050
T2
X3.360Y2.320
X3.460Y2.320
X3.560Y2.320
X3.660Y2.320
X3.760Y2.320
X3.860Y2.320
X3.960Y2.320
X3.960Y2.020
X3.860Y2.020
X3.760Y2.020
X3.660Y2.020
X3.560Y2.020
X3.460Y2.020
X3.360Y2.020
X1.140Y1.710
X1.240Y1.710
X1.340Y1.710
X1.440Y1.710
X1.540Y1.710
X1.640Y1.710
X1.740Y1.710
X1.840Y1.710
X1.840Y1.410
X1.740Y1.410
X1.640Y1.410
X1.540Y1.410
X1.440Y1.410
X1.340Y1.410
X1.240Y1.410
X1.140Y1.410
X2.450Y1.710
X2.550Y1.710
X2.650Y1.710
X2.750Y1.710
X2.850Y1.710
X2.950Y1.710
X3.050Y1.710
X3.150Y1.710
X3.250Y1.710
X3.350Y1.710
X3.450Y1.710
X3.550Y1.710
X3.650Y1.710
X2.350Y1.710
X3.650Y1.410
X3.550Y1.410
X3.450Y1.410
X3.350Y1.410
X3.250Y1.410
X3.150Y1.410
X3.050Y1.410
X2.950Y1.410
X2.850Y1.410
X2.750Y1.410
X2.650Y1.410
X2.550Y1.410
X2.450Y1.410
X2.350Y1.410
X2.810Y1.900
X2.610Y1.900
X2.970Y1.900
X3.170Y1.900
X1.040Y1.830
X1.240Y1.830
X1.340Y1.830
X1.540Y1.830
X3.100Y0.560
X3.300Y0.560
X2.770Y4.840
X2.870Y4.840
X2.770Y4.600
X2.870Y4.600
X2.770Y4.370
X2.870Y4.370
X2.770Y4.130
X2.870Y4.130
X2.770Y3.890
X2.870Y3.890
X2.770Y3.670
X2.870Y3.670
X2.770Y3.450
X2.870Y3.450
X2.770Y3.220
X2.870Y3.220
X2.530Y4.840
X2.630Y4.840
X2.530Y4.600
X2.630Y4.600
X2.530Y4.370
X2.630Y4.370
X2.530Y4.130
X2.630Y4.130
X2.530Y3.890
X2.630Y3.890
X2.530Y3.670
X2.630Y3.670
X2.530Y3.450
X2.630Y3.450
X2.530Y3.220
X2.630Y3.220
X2.290Y4.840
X2.390Y4.840
X2.290Y4.600
X2.390Y4.600
X2.290Y4.370
X2.390Y4.370
X2.290Y4.130
X2.390Y4.130
X2.290Y3.890
X2.390Y3.890
X2.290Y3.670
X2.390Y3.670
X2.290Y3.450
X2.390Y3.450
X2.290Y3.220
X2.390Y3.220
X2.050Y4.840
X2.150Y4.840
X2.050Y4.600
X2.150Y4.600
X2.050Y4.370
X2.150Y4.370
X2.050Y4.130
X2.150Y4.130
X2.050Y3.890
X2.150Y3.890
X2.050Y3.670
X2.150Y3.670
X2.050Y3.450
X2.150Y3.450
X2.050Y3.220
X2.150Y3.220
X1.820Y4.840
X1.920Y4.840
X1.820Y4.600
X1.920Y4.600
X1.820Y4.370
X1.920Y4.370
X1.820Y4.130
X1.920Y4.130
X1.810Y3.890
X1.910Y3.890
X1.810Y3.670
X1.910Y3.670
X1.810Y3.450
X1.910Y3.450
X1.810Y3.220
X1.910Y3.220
X1.570Y4.840
X1.670Y4.840
X1.570Y4.600
X1.670Y4.600
X1.570Y4.370
X1.670Y4.370
X1.570Y4.130
X1.670Y4.130
X1.570Y3.890
X1.670Y3.890
X1.570Y3.670
X1.670Y3.670
X1.570Y3.450
X1.670Y3.450
X1.570Y3.220
X1.670Y3.220
X1.330Y4.840
X1.430Y4.840
X1.330Y4.600
X1.430Y4.600
X1.330Y4.370
X1.430Y4.370
X1.330Y4.130
X1.430Y4.130
X1.330Y3.890
X1.430Y3.890
X1.330Y3.670
X1.430Y3.670
X1.330Y3.450
X1.430Y3.450
X1.330Y3.220
X1.430Y3.220
X1.090Y4.840
X1.190Y4.840
X1.090Y4.600
X1.190Y4.600
X1.090Y4.370
X1.190Y4.370
X1.090Y4.130
X1.190Y4.130
X1.090Y3.890
X1.190Y3.890
X1.090Y3.670
X1.190Y3.670
X1.090Y3.450
X1.190Y3.450
X1.090Y3.220
X1.190Y3.220
X3.230Y4.840
X3.130Y4.840
X3.230Y4.600
X3.130Y4.600
X3.230Y4.370
X3.130Y4.370
X3.230Y4.130
X3.130Y4.130
X3.230Y3.890
X3.130Y3.890
X3.230Y3.670
X3.130Y3.670
X3.230Y3.450
X3.130Y3.450
X3.230Y3.220
X3.130Y3.220
X2.870Y2.670
X2.870Y2.570
X2.620Y2.670
X2.620Y2.570
X2.370Y2.660
X2.370Y2.560
X2.120Y2.660
X2.120Y2.560
X1.870Y2.660
X1.870Y2.560
X1.630Y2.660
X1.630Y2.560
X1.380Y2.660
X1.380Y2.560
X1.130Y2.650
X1.130Y2.550
X4.020Y4.780
X4.020Y4.880
X4.120Y4.880
X4.020Y4.500
X4.020Y4.600
X4.120Y4.600
X4.020Y4.220
X4.020Y4.320
X4.120Y4.320
X4.020Y3.950
X4.020Y4.050
X4.120Y4.050
X4.020Y3.680
X4.020Y3.780
X4.120Y3.780
X4.020Y3.400
X4.020Y3.500
X4.120Y3.500
X4.020Y3.120
X4.020Y3.220
X4.120Y3.220
X4.030Y2.840
X4.030Y2.940
X4.130Y2.940
X2.970Y2.830
X2.870Y2.830
X2.870Y2.930
X2.720Y2.830
X2.620Y2.830
X2.620Y2.930
X2.470Y2.830
X2.370Y2.830
X2.370Y2.930
X2.220Y2.820
X2.120Y2.820
X2.120Y2.920
X1.970Y2.820
X1.870Y2.820
X1.870Y2.920
X1.730Y2.820
X1.630Y2.820
X1.630Y2.920
X1.480Y2.820
X1.380Y2.820
X1.380Y2.920
X1.230Y2.820
X1.130Y2.820
X1.130Y2.920
T3
X1.225Y1.140
X1.335Y1.140
X1.440Y1.140
X1.550Y1.140
X1.660Y1.140
X1.280Y1.040
X1.390Y1.040
X1.495Y1.040
X1.605Y1.040
T4
X1.945Y1.040
X0.945Y1.040
T0
M30
